<svg width="106" height="44" viewBox="0 0 106 44" fill="none" xmlns="http://www.w3.org/2000/svg">
<g id="Arrows">
<g id="Arrow">
<rect id="Rectangle 16" x="-0.5" y="-0.5" width="43" height="43" rx="21.5" transform="matrix(0 -1 -1 0 43 43)" stroke="#D8D0C7"/>
<path id="Union" d="M22.0619 30C22.0619 27.8782 21.2125 25.8434 19.7006 24.3431C18.1887 22.8428 16.1381 22 14 22M14 22C15.0587 22 16.107 21.793 17.0851 21.3911C18.0632 20.989 18.952 20.3997 19.7006 19.6569C20.4492 18.9139 21.043 18.032 21.4482 17.0614C21.8533 16.0908 22.0619 15.0506 22.0619 14M14 22H30" stroke="#110804" stroke-linecap="round" stroke-linejoin="round"/>
</g>
<g id="Arrow_2">
<rect id="Rectangle 16_2" x="62" y="44" width="44" height="44" rx="22" transform="rotate(-90 62 44)" fill="#FE7E41"/>
<path id="Union_2" d="M83.9381 30C83.9381 27.8782 84.7875 25.8434 86.2994 24.3431C87.8113 22.8428 89.8619 22 92 22M92 22C90.9413 22 89.893 21.793 88.9149 21.3911C87.9368 20.989 87.048 20.3997 86.2994 19.6569C85.5508 18.9139 84.957 18.032 84.5518 17.0614C84.1467 16.0908 83.9381 15.0506 83.9381 14M92 22H76" stroke="white" stroke-linecap="round" stroke-linejoin="round"/>
</g>
</g>
</svg>
