<svg width="126" height="96" viewBox="0 0 126 96" fill="none" xmlns="http://www.w3.org/2000/svg">
<path id="Union" d="M3.95516 0.522994C4.56739 1.82713 4.63246 3.32287 4.13609 4.68127C3.63972 6.03968 2.62255 7.1494 1.30837 7.76635M1.30837 7.76635C1.95909 7.46087 2.66315 7.28558 3.38032 7.25041C4.09754 7.21534 4.81384 7.32111 5.4883 7.56165C6.1628 7.8023 6.78225 8.173 7.31133 8.65266C7.84042 9.13232 8.26876 9.71155 8.5719 10.3573M1.30837 7.76635C15.6637 1.0272 41.9819 -5.5209 39.147 17.863C37.5964 30.6529 41.2708 53.6538 69.2701 51.5501C78.1055 50.8862 95.6607 46.9756 95.1975 36.6437C94.8832 29.6328 85.4389 20.2727 81.2135 34.2808C77.1846 47.6374 80.6321 77.4488 125.081 95.0546" stroke="#5BC18F" stroke-linecap="round" stroke-linejoin="round"/>
</svg>
