<svg width="116" height="20" viewBox="0 0 116 20" fill="none" xmlns="http://www.w3.org/2000/svg">
<g id="Rating">
<path id="Star 1" d="M10 0L13.5267 5.1459L19.5106 6.90983L15.7063 11.8541L15.8779 18.0902L10 16L4.12215 18.0902L4.29366 11.8541L0.489435 6.90983L6.47329 5.1459L10 0Z" fill="#F9C304"/>
<path id="Star 2" d="M34 0L37.5267 5.1459L43.5106 6.90983L39.7063 11.8541L39.8779 18.0902L34 16L28.1221 18.0902L28.2937 11.8541L24.4894 6.90983L30.4733 5.1459L34 0Z" fill="#F9C304"/>
<path id="Star 3" d="M58 0L61.5267 5.1459L67.5106 6.90983L63.7063 11.8541L63.8779 18.0902L58 16L52.1221 18.0902L52.2937 11.8541L48.4894 6.90983L54.4733 5.1459L58 0Z" fill="#F9C304"/>
<path id="Star 4" d="M82 0L85.5267 5.1459L91.5106 6.90983L87.7063 11.8541L87.8779 18.0902L82 16L76.1221 18.0902L76.2937 11.8541L72.4894 6.90983L78.4733 5.1459L82 0Z" fill="#F9C304"/>
<path id="Star 5" d="M106 0L109.527 5.1459L115.511 6.90983L111.706 11.8541L111.878 18.0902L106 16L100.122 18.0902L100.294 11.8541L96.4894 6.90983L102.473 5.1459L106 0Z" fill="#F9C304"/>
</g>
</svg>
